<?xml version="1.0" encoding="UTF-8"?>
<svg xmlns="http://www.w3.org/2000/svg" viewBox="0 0 1755 1241">
  <defs>
    <style>
      .cls-1, .cls-2, .cls-3, .cls-4, .cls-5, .cls-6, .cls-7, .cls-8, .cls-9, .cls-10, .cls-11, .cls-12, .cls-13, .cls-14, .cls-15, .cls-16, .cls-17, .cls-18, .cls-19, .cls-20, .cls-21 {
        stroke-miterlimit: 10;
      }

      .cls-1, .cls-2, .cls-3, .cls-4, .cls-5, .cls-7, .cls-8, .cls-9, .cls-11, .cls-12, .cls-13, .cls-14, .cls-15, .cls-16, .cls-20 {
        stroke: #000;
      }

      .cls-1, .cls-10, .cls-11, .cls-14, .cls-15, .cls-18 {
        fill: none;
      }

      .cls-2 {
        fill: #82d6b4;
      }

      .cls-3 {
        fill: #fbec0d;
      }

      .cls-4 {
        fill: #8ac9da;
      }

      .cls-22 {
        letter-spacing: .11em;
      }

      .cls-5 {
        fill: #d9a888;
      }

      .cls-23 {
        font-size: 10px;
      }

      .cls-23, .cls-24, .cls-25, .cls-26, .cls-27, .cls-28 {
        font-family: ArialRoundedMT, 'Arial Rounded MT';
      }

      .cls-29, .cls-8, .cls-13, .cls-19 {
        fill: #fff;
      }

      .cls-6 {
        fill: #dfdbdc;
      }

      .cls-6, .cls-18 {
        stroke: #a7a4a5;
      }

      .cls-30 {
        letter-spacing: -.04em;
      }

      .cls-31 {
        letter-spacing: -.05em;
      }

      .cls-7, .cls-21 {
        fill: #ff8e66;
      }

      .cls-32 {
        fill: #6e6e6e;
      }

      .cls-9, .cls-17 {
        fill: #da89d5;
      }

      .cls-10 {
        stroke: #6e6e6e;
        stroke-width: 2px;
      }

      .cls-11 {
        stroke-dasharray: 12.06 12.06;
      }

      .cls-12 {
        fill: #03fd48;
      }

      .cls-33 {
        letter-spacing: -.09em;
      }

      .cls-13 {
        stroke-dasharray: 12;
      }

      .cls-13, .cls-34 {
        opacity: .5;
      }

      .cls-24 {
        font-size: 8px;
      }

      .cls-25 {
        font-size: 14px;
      }

      .cls-26 {
        font-size: 12px;
      }

      .cls-35 {
        letter-spacing: -.01em;
      }

      .cls-14 {
        stroke-dasharray: 12.22 12.22;
      }

      .cls-27 {
        font-size: 18px;
      }

      .cls-15 {
        stroke-dasharray: 11.93 11.93;
      }

      .cls-16 {
        fill: #01c5f5;
      }

      .cls-36 {
        letter-spacing: -.03em;
      }

      .cls-37 {
        letter-spacing: .04em;
      }

      .cls-17 {
        stroke: #231f20;
      }

      .cls-38 {
        letter-spacing: -.05em;
      }

      .cls-39 {
        letter-spacing: -.02em;
      }

      .cls-19, .cls-21 {
        stroke: #121212;
      }

      .cls-28 {
        font-size: 11px;
      }

      .cls-20 {
        fill: #898bd8;
      }
    </style>
  </defs>
  <g id="AREA_OTHER">
    <g id="LOC_BASKETBALL2">
      <polygon id="BASKETBALL2" class="cls-6" points="1418.81 500.21 1614.46 532.3 1567.89 870.97 1365 831.65 1418.81 500.21"/>
      <text id="LBL_BASKETBALL2" class="cls-28" transform="translate(1428.07 689.19)"><tspan class="cls-30" x="0" y="0">B</tspan><tspan x="7.49" y="0">ASKET</tspan><tspan class="cls-30" x="45.1" y="0">B</tspan><tspan x="52.59" y="0">ALL COU</tspan><tspan class="cls-38" x="101.75" y="0">R</tspan><tspan x="109.11" y="0">TS</tspan></text>
    </g>
    <g id="LOC_BASKETBALL1">
      <polygon id="BASKETBALL1" class="cls-6" points="1050.78 421.95 1198.5 442.89 1168.96 642.65 1021.24 617.8 1050.78 421.95"/>
      <text id="LBL_BASKETBALL1" class="cls-28" transform="translate(1048.21 535.89)"><tspan class="cls-30" x="0" y="0">B</tspan><tspan x="7.49" y="0">ASKET</tspan><tspan class="cls-30" x="45.1" y="0">B</tspan><tspan x="52.59" y="0">ALL COU</tspan><tspan class="cls-38" x="101.75" y="0">R</tspan><tspan x="109.11" y="0">TS</tspan></text>
    </g>
    <g id="LOC_CARPARK">
      <polygon id="CARPARK" class="cls-6" points="912.07 344.7 923.22 231.58 635.22 198.52 614.87 302.02 912.07 344.7"/>
      <text id="LBL_CARPARK" class="cls-25" transform="translate(732.74 276.18)"><tspan x="0" y="0">CAR </tspan><tspan class="cls-33" x="34" y="0">P</tspan><tspan x="42.11" y="0">ARK</tspan></text>
    </g>
    <g id="LOC_SOCCER">
      <polygon id="SOCCER" class="cls-6" points="1033.18 274.43 1036.11 270.13 1118.48 253.3 1439.15 285 1590.2 290.67 1598.61 350.34 1435.63 342.91 1414.7 458.74 1061.94 402.39 1113.2 319.22 1033.18 274.43"/>
      <text id="LBL_SOCCER" class="cls-25" transform="translate(1262.3 360.59)"><tspan x="0" y="0">SOCCER PI</tspan><tspan class="cls-39" x="77.78" y="0">T</tspan><tspan x="86.18" y="0">CH</tspan></text>
    </g>
    <g id="LOC_OVAL">
      <ellipse id="OVAL" class="cls-6" cx="364.31" cy="395.48" rx="190.03" ry="129.68" transform="translate(-114.46 640.23) rotate(-74.43)"/>
      <text id="LBL_OVAL" class="cls-25" transform="translate(305.79 400.05)"><tspan x="0" y="0">FO</tspan><tspan class="cls-30" x="19.54" y="0">O</tspan><tspan x="30.1" y="0">T</tspan><tspan class="cls-30" x="38.85" y="0">B</tspan><tspan x="48.38" y="0">ALL </tspan><tspan class="cls-36" x="78.87" y="0">O</tspan><tspan class="cls-31" x="89.59" y="0">V</tspan><tspan x="98.51" y="0">AL</tspan></text>
    </g>
    <polygon id="SCHOOL_BORDER" class="cls-18" points="310.27 156.96 1463.88 271.61 1669.57 271.61 1578.07 1084.04 688.83 892.1 488.87 792.32 124.96 465.19 310.27 156.96"/>
    <polygon id="W_SHED" class="cls-8" points="410.85 562.81 442.54 589.15 431.33 602.85 440.85 610.68 422.33 632.72 381.63 599.2 410.85 562.81"/>
    <polygon id="W_J_BLOCK_STAGE" class="cls-8" points="725.78 713.72 746.91 717.12 753.76 679.66 818.33 689.07 811.09 733.37 828.89 735.63 816.76 804.31 734.39 791.98 735.82 773.39 716.78 770.06 725.78 713.72"/>
    <polygon id="W_CENTRAL_BLOCK" class="cls-8" points="873.54 838.63 942.44 851.46 935.37 891.73 867.08 878.22 873.54 838.63"/>
    <g id="UL_GP">
      <g id="UL_GP_BORDER" class="cls-34">
        <polygon class="cls-29" points="119.71 608.27 360.64 602.31 422.58 649.22 442.54 706.93 437.16 1090.8 119.71 1090.8 119.71 608.27"/>
        <g>
          <polyline class="cls-1" points="119.71 614.27 119.71 608.27 125.71 608.12"/>
          <polyline class="cls-15" points="137.64 607.83 360.64 602.31 422.58 649.22 442.54 706.93 437.33 1078.83"/>
          <polyline class="cls-1" points="437.25 1084.8 437.16 1090.8 431.16 1090.8"/>
          <line class="cls-14" x1="418.95" y1="1090.8" x2="131.82" y2="1090.8"/>
          <polyline class="cls-1" points="125.71 1090.8 119.71 1090.8 119.71 1084.8"/>
          <line class="cls-11" x1="119.71" y1="1072.73" x2="119.71" y2="620.3"/>
        </g>
      </g>
      <g id="LBL_UL_GP">
        <rect id="BKG" class="cls-19" x="140.26" y="1060.07" width="89.2" height="23.97" rx="8.84" ry="8.84"/>
        <text id="LBL_GP_UL" class="cls-28" transform="translate(146.58 1075.65)"><tspan x="0" y="0">UPPER LEVEL</tspan></text>
      </g>
      <g id="UL_ARROW_GP">
        <g>
          <path class="cls-10" d="M370.82,624.73c29.22-26.44,79.91-71.55,106.18-113.46,22.5-35.9,44.69-108.83,68.14-113.5"/>
          <path class="cls-32" d="M361.9,632.85c5.62-2.26,13.26-4.33,19.05-4.45l-8.94-4.73-3.85-9.35c-.67,5.76-3.47,13.16-6.26,18.53Z"/>
          <path class="cls-32" d="M556.66,401.35c-6.03.63-13.75,2.36-18.92,4.96l5.7-8.36-.97-10.07c3.28,4.78,9.21,10.01,14.19,13.46Z"/>
        </g>
      </g>
    </g>
    <g id="UL_A">
      <polygon id="UL_A_BORDER" class="cls-13" points="1241.71 1090.8 1226.52 994.51 966.49 939.6 883.22 1090.8 1241.71 1090.8"/>
      <g id="LBL_UL_A">
        <rect id="BKG-2" data-name="BKG" class="cls-19" x="905.3" y="1061.84" width="89.2" height="23.97" rx="8.84" ry="8.84"/>
        <text id="LBL_A_UL" class="cls-28" transform="translate(911.62 1077.42)"><tspan x="0" y="0">UPPER LEVEL</tspan></text>
      </g>
      <g id="UL_ARROW_A">
        <g>
          <path class="cls-10" d="M984.99,962.52c-22.24-26.32-17.38-63.46,16.11-68.81"/>
          <path class="cls-32" d="M993.59,970.99c-2.51-5.51-4.94-13.04-5.32-18.83l-4.31,9.15-9.17,4.27c5.78.41,13.3,2.87,18.8,5.4Z"/>
          <path class="cls-32" d="M1013.16,893.15c-5.55,2.43-12.37,6.43-16.51,10.49l2.88-9.7-3.99-9.29c4.58,3.55,11.83,6.73,17.62,8.5Z"/>
        </g>
      </g>
    </g>
  </g>
  <g id="AREA_CENTRAL">
    <polygon id="W_Outer" class="cls-8" points="900.13 551.08 878.35 665.34 884.68 666.91 878.35 711.13 871.76 711.13 857.28 804.26 963.52 823.43 980.94 730.3 976.04 728.74 980.94 685.3 988.18 685.1 1008.33 568.69 900.13 551.08"/>
    <g id="LOC_ADMIN">
      <polygon id="ADMIN" class="cls-20" points="984.62 515.08 907.57 502.17 925.37 401.21 1030.24 417.84 1019.88 482.21 990.72 477.52 984.62 515.08"/>
      <text id="LBL_ADMIN" class="cls-25" transform="translate(919.3 462.72)"><tspan x="0" y="0">Administ</tspan><tspan class="cls-39" x="59.79" y="0">ra</tspan><tspan x="73.55" y="0">tion</tspan></text>
    </g>
    <g id="LOC_SB">
      <polygon id="SB" class="cls-20" points="984.62 515.08 990.72 477.52 1019.88 482.21 1013.81 519.97 984.62 515.08"/>
      <g id="LBL_SB">
        <path d="M998.14,493.86c0,.43-.11.82-.33,1.17-.22.35-.55.62-.98.81s-.94.29-1.53.29c-.71,0-1.29-.13-1.75-.4-.33-.19-.59-.45-.79-.77s-.31-.63-.31-.94c0-.18.06-.33.18-.45s.28-.19.47-.19c.15,0,.28.05.39.15s.2.24.27.43c.09.23.19.42.3.57s.25.28.45.38.44.15.76.15c.43,0,.78-.1,1.05-.3s.4-.45.4-.75c0-.24-.07-.43-.22-.58s-.33-.26-.56-.34-.54-.16-.92-.25c-.51-.12-.94-.26-1.29-.42s-.62-.38-.83-.66-.31-.62-.31-1.04.11-.74.32-1.05.53-.54.93-.71.89-.25,1.44-.25c.44,0,.82.05,1.14.16s.59.25.8.43.37.37.46.57.15.39.15.58c0,.17-.06.33-.18.47-.12.14-.27.21-.46.21-.17,0-.29-.04-.38-.12s-.18-.22-.28-.41c-.13-.27-.29-.48-.47-.63s-.48-.23-.88-.23c-.37,0-.68.08-.91.25s-.34.36-.34.59c0,.14.04.27.12.37s.19.19.32.27.27.13.42.18.37.1.69.19c.4.09.77.2,1.1.31s.61.25.83.42c.23.16.41.37.54.62.13.25.19.55.19.92Z"/>
        <path d="M999.95,490.09c-.19,0-.34-.06-.48-.17s-.2-.27-.2-.48c0-.19.07-.34.2-.47.14-.12.29-.18.47-.18s.33.06.46.17c.13.11.2.27.2.48s-.07.37-.2.48c-.13.12-.29.17-.46.17ZM1000.61,491.47v3.85c0,.27-.06.47-.19.61s-.29.21-.48.21-.35-.07-.48-.21-.18-.34-.18-.6v-3.81c0-.26.06-.46.18-.6s.28-.2.48-.2.36.07.48.2.19.32.19.56Z"/>
        <path d="M1006.76,494.48c0,.17-.05.34-.15.53-.1.19-.25.37-.45.54-.2.17-.46.31-.77.41-.31.1-.66.16-1.04.16-.82,0-1.47-.24-1.93-.72-.46-.48-.69-1.12-.69-1.93,0-.55.11-1.03.32-1.45.21-.42.52-.74.92-.97s.88-.34,1.44-.34c.34,0,.66.05.95.15s.53.23.73.39.35.33.46.51c.11.18.16.35.16.51s-.06.29-.18.41c-.12.11-.26.17-.43.17-.11,0-.2-.03-.28-.09s-.16-.15-.25-.28c-.16-.25-.33-.43-.51-.56-.18-.12-.4-.19-.68-.19-.39,0-.71.15-.95.46-.24.31-.36.73-.36,1.26,0,.25.03.48.09.69.06.21.15.39.27.54s.26.26.42.34.35.11.55.11c.27,0,.5-.06.69-.19s.36-.31.51-.57c.08-.15.17-.27.26-.35.09-.08.21-.13.35-.13.16,0,.3.06.41.19s.16.26.16.4Z"/>
        <path d="M1010.86,495.52l-1.18-1.93-.72.68v1.06c0,.26-.07.46-.2.59-.13.14-.29.21-.47.21-.21,0-.37-.07-.48-.21s-.18-.34-.18-.61v-5.68c0-.3.06-.52.17-.68.11-.15.28-.23.49-.23s.37.07.49.21c.12.14.18.35.18.62v3.23l1.5-1.57c.19-.2.33-.33.42-.4s.22-.11.36-.11c.17,0,.3.05.42.16.11.11.17.24.17.4,0,.2-.18.46-.54.78l-.71.65,1.37,2.15c.1.16.17.28.22.36s.07.16.07.24c0,.21-.06.38-.17.5-.12.12-.27.18-.46.18-.16,0-.29-.04-.38-.13s-.21-.25-.36-.48Z"/>
        <path d="M996.88,508.01h-2.19c-.32,0-.54-.07-.68-.21s-.2-.37-.2-.68v-5.38c0-.32.07-.54.21-.68s.36-.21.67-.21h2.32c.34,0,.64.02.89.06.25.04.48.12.67.24.17.1.32.23.45.38.13.15.23.33.3.51s.1.38.1.59c0,.72-.36,1.24-1.07,1.57.94.3,1.41.88,1.41,1.75,0,.4-.1.76-.31,1.08s-.48.56-.83.71c-.22.09-.47.16-.75.19-.28.04-.61.06-.99.06ZM995.26,501.94v1.85h1.33c.36,0,.64-.03.84-.1.2-.07.35-.2.45-.39.08-.14.12-.29.12-.46,0-.36-.13-.6-.39-.72-.26-.12-.65-.18-1.18-.18h-1.18ZM996.77,504.83h-1.51v2.09h1.56c.98,0,1.47-.35,1.47-1.06,0-.36-.13-.62-.38-.79s-.63-.24-1.14-.24Z"/>
        <path d="M1004.29,507.38c-.32.25-.63.44-.93.56-.3.13-.64.19-1.01.19-.34,0-.64-.07-.9-.2s-.46-.32-.6-.55c-.14-.23-.21-.48-.21-.75,0-.36.12-.68.35-.93.23-.26.55-.43.95-.52.08-.02.29-.06.63-.13.34-.07.62-.13.86-.19s.5-.13.78-.21c-.02-.35-.09-.61-.21-.77-.13-.16-.38-.25-.78-.25-.34,0-.59.05-.76.14s-.32.24-.44.42-.21.31-.26.37c-.05.06-.16.09-.33.09-.15,0-.28-.05-.39-.14-.11-.1-.16-.22-.16-.37,0-.23.08-.46.25-.68s.42-.4.78-.55.79-.21,1.31-.21c.59,0,1.05.07,1.38.21.34.14.57.36.71.66.14.3.21.7.21,1.19,0,.31,0,.58,0,.8,0,.22,0,.46,0,.73,0,.25.04.51.12.78s.12.45.12.52c0,.14-.06.26-.19.37-.13.11-.27.17-.44.17-.14,0-.27-.06-.41-.19-.13-.13-.27-.31-.42-.56ZM1004.2,505.45c-.2.07-.48.15-.85.23-.37.08-.63.14-.77.18-.14.04-.28.11-.41.22-.13.11-.2.26-.2.46s.08.37.23.52c.15.14.35.21.6.21.26,0,.51-.06.73-.17.22-.12.39-.26.49-.45.12-.2.18-.53.18-1v-.19Z"/>
        <path d="M1007.96,508.3l.12-.3-1.64-4.13c-.1-.24-.15-.41-.15-.52,0-.11.03-.22.09-.32s.14-.18.24-.23.21-.09.32-.09c.19,0,.34.06.43.18s.18.3.26.52l1.13,3.28,1.07-3.05c.08-.25.16-.44.23-.58s.14-.23.22-.28c.08-.05.18-.07.32-.07.1,0,.2.03.29.08s.16.13.21.22c.05.09.08.19.08.29-.01.06-.03.15-.06.26s-.06.23-.11.35l-1.74,4.55c-.15.4-.3.71-.44.94-.14.23-.33.4-.57.52-.24.12-.55.18-.96.18s-.68-.04-.88-.13-.29-.24-.29-.46c0-.15.05-.27.14-.35s.23-.12.41-.12c.07,0,.14,0,.21.03.08.02.16.03.22.03.15,0,.27-.02.36-.07s.17-.12.24-.24c.07-.11.15-.28.24-.5Z"/>
      </g>
    </g>
    <g id="LOC_CANTEEN">
      <polygon id="CANTEEN" class="cls-20" points="972.28 608.27 979.49 564 900.13 551.08 891.88 594.35 972.28 608.27"/>
      <text id="LBL_CANTEEN" class="cls-26" transform="translate(911.18 583.6)"><tspan x="0" y="0">Canteen</tspan></text>
    </g>
    <g id="LOC_LUNCHBOX">
      <polygon id="LUNCHBOX" class="cls-20" points="891.88 594.35 1000.63 613.18 992.64 659.3 914.8 645.82 883.22 639.8 891.88 594.35"/>
      <text id="LBL_LUNCHBOX" class="cls-26" transform="translate(913.66 630.74)"><tspan x="0" y="0">Lun</tspan><tspan class="cls-39" x="21.74" y="0">c</tspan><tspan x="28.58" y="0">hb</tspan><tspan class="cls-39" x="43.32" y="0">o</tspan><tspan x="50.27" y="0">x</tspan></text>
    </g>
    <g id="LOC_MS">
      <polygon id="MS" class="cls-20" points="992.64 659.3 988.18 685.1 980.94 685.3 909.85 671.72 914.8 645.82 992.64 659.3"/>
      <text id="LBL_MS" class="cls-23" transform="translate(917.3 668.83)"><tspan x="0" y="0">Middle S</tspan><tspan class="cls-39" x="41.36" y="0">c</tspan><tspan x="47.06" y="0">hool</tspan></text>
    </g>
    <g id="CLASS_WBC">
      <polygon id="WBC" class="cls-20" points="918.35 770.06 910.45 813.85 963.52 823.43 971.94 778.4 918.35 770.06"/>
      <text id="LBL_WBC" class="cls-25" transform="translate(924.41 801.32)"><tspan x="0" y="0">WBC</tspan></text>
    </g>
    <g id="CLASS_LIB">
      <polygon id="LIB" class="cls-20" points="884.68 666.91 980.94 685.3 976.04 728.74 980.94 730.3 971.94 778.4 863.92 761.6 871.76 711.13 878.35 711.13 884.68 666.91"/>
      <text id="LBL_LIB" class="cls-27" transform="translate(907.7 728.53)"><tspan x="0" y="0">LIB</tspan></text>
    </g>
    <g id="CLASS_VCEC">
      <polygon id="VCEC" class="cls-20" points="1089.33 699 1077.39 780.39 1138.44 790.56 1149.39 710.54 1089.33 699"/>
      <text id="LBL_VCEC" class="cls-25" transform="translate(1098.82 740.95)"><tspan class="cls-35" x="0" y="0">V</tspan><tspan x="9.45" y="0">CE</tspan><tspan x="-8.52" y="16.8">Cent</tspan><tspan class="cls-39" x="23.57" y="16.8">r</tspan><tspan x="29.35" y="16.8">e</tspan></text>
    </g>
  </g>
  <g id="AREA_GYM">
    <g id="CLASS_GYM">
      <polygon id="GYM" class="cls-5" points="1290.26 792.13 1301.41 725.02 1325.48 730.3 1337.41 655.37 1313.94 652.24 1320.78 607.43 1308.26 605.47 1310.02 586.89 1197.33 568.89 1169.3 734.8 1213.04 741.65 1207.36 777.95 1290.26 792.13"/>
      <text id="LBL_GYM" class="cls-27" transform="translate(1230.1 686.38)"><tspan x="0" y="0">GYM</tspan></text>
    </g>
    <g id="LOC_STAFF_GYM">
      <polygon id="STAFF_GYM" class="cls-5" points="1207.36 777.95 1163.28 770.41 1169.3 734.8 1213.15 740.95 1207.36 777.95"/>
      <text id="LBL_STAFF_GYM" class="cls-26" transform="translate(1173.64 760.29)"><tspan x="0" y="0">Sta</tspan><tspan class="cls-37" x="19.38" y="0">f</tspan><tspan class="cls-22" x="23.82" y="0">f</tspan></text>
    </g>
  </g>
  <g id="AREA_A_BLOCK">
    <polygon id="W_Outer-2" data-name="W_Outer" class="cls-8" points="969.09 970.99 955.98 1053.36 1156.92 1086.62 1170.22 1003.67 969.09 970.99"/>
    <g id="LOC_STAFF_A">
      <polygon id="STAFF_A" class="cls-8" points="1009.76 977.6 1001.46 1023.76 1085.51 1038.1 1093.13 991.15 1009.76 977.6"/>
      <text id="LBL_STAFF_A" class="cls-26" transform="translate(1032.72 1011.77)"><tspan x="0" y="0">Sta</tspan><tspan class="cls-37" x="19.38" y="0">f</tspan><tspan class="cls-22" x="23.82" y="0">f</tspan></text>
    </g>
    <g id="CLASS_A09">
      <polygon id="A09" class="cls-12" points="1123.15 1033.51 1128.92 996.96 1170.22 1003.67 1164.38 1040.12 1123.15 1033.51"/>
      <text id="LBL_A09" class="cls-25" transform="translate(1133.33 1023.11)"><tspan x="0" y="0">A09</tspan></text>
    </g>
    <g id="CLASS_A08">
      <polygon id="A08" class="cls-12" points="1085.51 1038.1 1093.13 991.15 1128.92 996.96 1121.51 1043.97 1085.51 1038.1"/>
      <text id="LBL_A08" class="cls-25" transform="translate(1093.86 1022.13)"><tspan x="0" y="0">A08</tspan></text>
    </g>
    <g id="CLASS_A07">
      <polygon id="A07" class="cls-12" points="1009.76 977.6 1002.94 1014.82 963.13 1008.48 969.09 970.99 1009.76 977.6"/>
      <text id="LBL_A07" class="cls-25" transform="translate(973.09 997.48)"><tspan x="0" y="0">A07</tspan></text>
    </g>
    <g id="CLASS_A05">
      <polygon id="A05" class="cls-12" points="1002.94 1014.82 995.48 1059.9 955.98 1053.36 963.13 1008.48 1002.94 1014.82"/>
      <text id="LBL_A05" class="cls-25" transform="translate(966.11 1038.76)"><tspan x="0" y="0">A05</tspan></text>
    </g>
    <g id="CLASS_A04">
      <polygon id="A04" class="cls-12" points="1042.43 1067.67 1049.11 1031.65 1001.46 1023.76 995.48 1059.9 1042.43 1067.67"/>
      <text id="LBL_A04" class="cls-25" transform="translate(1008.94 1050.29)"><tspan x="0" y="0">A04</tspan></text>
    </g>
    <g id="CLASS_A03">
      <polygon id="A03" class="cls-12" points="1049.11 1031.65 1085.51 1038.1 1079.59 1073.82 1042.43 1067.67 1049.11 1031.65"/>
      <text id="LBL_A03" class="cls-25" transform="translate(1050.61 1057.31)"><tspan x="0" y="0">A03</tspan></text>
    </g>
    <g id="CLASS_A02">
      <polygon id="A02" class="cls-12" points="1085.51 1038.1 1121.51 1043.97 1115.58 1079.78 1079.59 1073.82 1085.51 1038.1"/>
      <text id="LBL_A02" class="cls-25" transform="translate(1087.2 1063.51)"><tspan x="0" y="0">A02</tspan></text>
    </g>
    <g id="CLASS_A01">
      <polygon id="A01" class="cls-12" points="1123.15 1033.51 1164.38 1040.12 1156.92 1086.62 1115.58 1079.78 1123.15 1033.51"/>
      <text id="LBL_A01" class="cls-25" transform="translate(1126.62 1064.64)"><tspan x="0" y="0">A01</tspan></text>
    </g>
  </g>
  <g id="AREA_C_BLOCK">
    <polygon id="W_Outer-3" data-name="W_Outer" class="cls-8" points="1055.87 855.91 1042.57 938.47 1242.91 972.13 1257 889.37 1055.87 855.91"/>
    <polygon id="W_Outer_Block" class="cls-8" points="1026.52 850.63 1013.02 932.28 1042.57 938.47 1055.87 855.91 1026.52 850.63"/>
    <g id="LOC_STAFF_C">
      <polygon id="STAFF_C" class="cls-8" points="1095.94 862.57 1087.99 908.68 1208.33 928.55 1216 882.54 1095.94 862.57"/>
      <text id="LBL_STAFF_C" class="cls-26" transform="translate(1137.41 899.48)"><tspan x="0" y="0">Sta</tspan><tspan class="cls-37" x="19.38" y="0">f</tspan><tspan class="cls-22" x="23.82" y="0">f</tspan></text>
    </g>
    <g id="CLASS_C07">
      <polygon id="C07" class="cls-2" points="1210.04 918.32 1216 882.54 1257 889.37 1250.89 925.27 1210.04 918.32"/>
      <text id="LBL_C07" class="cls-25" transform="translate(1220.02 908.48)"><tspan x="0" y="0">C07</tspan></text>
    </g>
    <g id="CLASS_C06">
      <polygon id="C06" class="cls-2" points="1095.94 862.57 1089.52 899.54 1049.87 893.15 1055.87 855.91 1095.94 862.57"/>
      <text id="LBL_C06" class="cls-25" transform="translate(1059.41 882.3)"><tspan x="0" y="0">C06</tspan></text>
    </g>
    <g id="CLASS_C05">
      <polygon id="C05" class="cls-2" points="1089.52 899.54 1081.87 945.08 1042.57 938.47 1049.87 893.15 1089.52 899.54"/>
      <text id="LBL_C05" class="cls-25" transform="translate(1052.54 923.68)"><tspan x="0" y="0">C05</tspan></text>
    </g>
    <g id="CLASS_C04">
      <polygon id="C04" class="cls-2" points="1129.13 953.01 1134.91 916.56 1087.99 908.68 1081.87 945.08 1129.13 953.01"/>
      <text id="LBL_C04" class="cls-25" transform="translate(1094.89 935.42)"><tspan x="0" y="0">C04</tspan></text>
    </g>
    <g id="CLASS_C03">
      <polygon id="C03" class="cls-2" points="1166.15 959.23 1171.89 922.43 1134.91 916.56 1129.13 953.01 1166.15 959.23"/>
      <text id="LBL_C03" class="cls-25" transform="translate(1137.01 942.47)"><tspan x="0" y="0">C03</tspan></text>
    </g>
    <g id="CLASS_C02">
      <polygon id="C02" class="cls-2" points="1171.89 922.43 1208.33 928.55 1202.15 965.28 1166.15 959.23 1171.89 922.43"/>
      <text id="LBL_C02" class="cls-25" transform="translate(1173.74 948.43)"><tspan x="0" y="0">C02</tspan></text>
    </g>
    <g id="CLASS_C01">
      <polygon id="C01" class="cls-2" points="1202.15 965.28 1210.04 918.32 1250.89 925.27 1242.91 972.13 1202.15 965.28"/>
      <text id="LBL_C01" class="cls-25" transform="translate(1213.02 949.8)"><tspan x="0" y="0">C01</tspan></text>
    </g>
  </g>
  <g id="AREA_G_BLOCK">
    <polygon id="W_PAC_UPPER" class="cls-8" points="235.47 748.26 242.22 732.09 230.19 727.06 275.03 630.57 277.38 636.69 290.29 630.57 302.81 639.38 315.72 632.53 315.72 637.62 329.22 636.64 330.59 640.51 344.29 638.2 345.66 642.81 351.56 642.81 351.56 642.81 337.72 764.18 306.21 751.3 302.76 757.42 287.32 762.27 235.47 748.26"/>
    <polygon id="W_GM_INNER" class="cls-8" points="230.19 727.06 211.1 768.16 160.98 744.78 164.68 736.62 161.94 734.66 169.38 728.2 172.85 720.88 170.55 719.79 177.59 711.38 175.44 707.27 178.24 702.92 230.19 727.06"/>
    <polygon id="W_Outer-4" data-name="W_Outer" class="cls-8" points="252.92 782.4 361.9 798.25 319.25 1061.59 209.49 1043.99 252.92 782.4"/>
    <polygon id="W_Outer_Block-2" data-name="W_Outer_Block" class="cls-8" points="397.51 1015.23 391.58 1062.57 346.44 1055.33 346.44 1037.33 323.77 1033.66 332.46 980.02 355.76 983.39 352.9 1009.47 397.51 1015.23"/>
    <g id="LOC_STAFF_G">
      <polyline id="STAFF_G" class="cls-8" points="270.92 942.25 296.32 788.71 317.63 791.81 309.07 850.68 352.46 856.51 350.73 867.22 306.72 861.25 298.7 909.38 342.74 916.51 340.28 931.7 294.79 924.64 292.46 944.74 290.49 961.81 282.27 1002.12 272.24 1054.05 209.49 1043.99 227.57 935.05 270.92 942.25"/>
      <text id="LBL_STAFF_G" class="cls-26" transform="translate(236.39 998.47)"><tspan x="0" y="0">Sta</tspan><tspan class="cls-37" x="19.38" y="0">f</tspan><tspan class="cls-22" x="23.82" y="0">f</tspan></text>
    </g>
    <g id="CLASS_G13">
      <polygon id="G13" class="cls-16" points="196.38 666.57 192.07 659.14 204.79 652.49 200.29 647.01 212.22 637.03 207.33 634.29 216.6 624.31 231.79 620.59 232.96 627.05 246.07 624.9 246.07 627.83 260.16 626.46 261.14 630.57 275.03 630.57 247.3 690.24 196.38 666.57"/>
      <text id="LBL_G13" class="cls-25" transform="translate(219.69 659.99)"><tspan x="0" y="0">G13</tspan></text>
    </g>
    <g id="CLASS_G12">
      <polygon id="G12" class="cls-16" points="196.38 666.57 247.3 690.24 230.19 727.06 178.24 702.92 182.88 695.73 177.2 692.4 191.49 682.03 186.2 672.83 196.38 666.57"/>
      <text id="LBL_G12" class="cls-25" transform="translate(198.39 701.39)"><tspan x="0" y="0">G12</tspan></text>
    </g>
    <g id="CLASS_G11">
      <polygon id="G11" class="cls-16" points="147.4 774.71 202.45 800.39 216.34 770.61 160.98 744.78 147.4 774.71"/>
      <text id="LBL_G11" class="cls-25" transform="translate(168.01 777.16)"><tspan x="0" y="0">G11</tspan></text>
    </g>
    <g id="CLASS_G10">
      <polygon id="G10" class="cls-16" points="147.4 774.71 134.16 803.92 188.94 829.36 202.45 800.39 147.4 774.71"/>
      <text id="LBL_G10" class="cls-25" transform="translate(154.44 806.61)"><tspan x="0" y="0">G10</tspan></text>
    </g>
    <g id="CLASS_G09">
      <polygon id="G09" class="cls-16" points="296.32 788.71 286.88 846.96 243.4 839.74 252.92 782.4 296.32 788.71"/>
      <text id="LBL_G09" class="cls-25" transform="translate(255.99 819.25)"><tspan x="0" y="0">G09</tspan></text>
    </g>
    <g id="CLASS_G08">
      <polygon id="G08" class="cls-16" points="286.88 846.96 278.75 894.7 235.47 887.52 243.4 839.74 286.88 846.96"/>
      <text id="LBL_G08" class="cls-25" transform="translate(247.31 871.8)"><tspan x="0" y="0">G08</tspan></text>
    </g>
    <g id="CLASS_G07">
      <polygon id="G07" class="cls-16" points="278.75 894.7 270.92 942.25 227.57 935.05 235.47 887.52 278.75 894.7"/>
      <text id="LBL_G07" class="cls-25" transform="translate(239.3 919.45)"><tspan x="0" y="0">G07</tspan></text>
    </g>
    <g id="CLASS_G06">
      <polygon id="G06" class="cls-16" points="357.59 966.7 352.9 1009.47 397.51 1015.23 403.57 972.96 357.59 966.7"/>
      <text id="LBL_G06" class="cls-25" transform="translate(364.37 995.54)"><tspan x="0" y="0">G06</tspan></text>
    </g>
    <g id="CLASS_G05">
      <polygon id="G05" class="cls-16" points="272.24 1054.05 282.27 1002.12 327.69 1009.47 319.25 1061.59 272.24 1054.05"/>
      <text id="LBL_G05" class="cls-25" transform="translate(286.1 1036.43)"><tspan x="0" y="0">G05</tspan></text>
    </g>
    <g id="CLASS_G04">
      <polygon id="G04" class="cls-16" points="282.27 1002.12 290.49 961.81 334.26 968.9 327.69 1009.47 282.27 1002.12"/>
      <text id="LBL_G04" class="cls-25" transform="translate(294.4 990.21)"><tspan x="0" y="0">G04</tspan></text>
    </g>
    <g id="CLASS_G03">
      <polygon id="G03" class="cls-16" points="340.28 931.7 294.79 924.64 290.49 961.81 334.26 968.9 340.28 931.7"/>
      <text id="LBL_G03" class="cls-25" transform="translate(301.52 951.34)"><tspan x="0" y="0">G03</tspan></text>
    </g>
    <g id="CLASS_G02">
      <polygon id="G02" class="cls-16" points="306.72 861.25 298.7 909.38 342.74 916.51 350.73 867.22 306.72 861.25"/>
      <text id="LBL_G02" class="cls-25" transform="translate(310.85 893.45)"><tspan x="0" y="0">G02</tspan></text>
    </g>
    <g id="CLASS_G01">
      <polygon id="G01" class="cls-16" points="352.46 856.51 309.07 850.68 317.63 791.81 361.9 798.25 352.46 856.51"/>
      <text id="LBL_G01" class="cls-25" transform="translate(321.62 828.73)"><tspan x="0" y="0">G01</tspan></text>
    </g>
    <g id="CLASS_GM7">
      <polygon id="GM7" class="cls-7" points="287.52 739.26 307.97 744.44 306.21 751.3 302.76 757.42 287.32 762.27 281.71 760.75 287.52 739.26"/>
      <text id="LBL_GM7" class="cls-24" transform="translate(285.96 753.38)"><tspan x="0" y="0">GM7</tspan></text>
    </g>
    <g id="CLASS_GM6">
      <polygon id="GM6" class="cls-7" points="259.46 754.74 264.84 733.52 287.52 739.26 281.71 760.75 259.46 754.74"/>
      <text id="LBL_GM6" class="cls-24" transform="translate(264.62 749.75)"><tspan x="0" y="0">GM6</tspan></text>
    </g>
    <g id="CLASS_GM5">
      <polygon id="GM5" class="cls-7" points="235.47 748.26 243.85 728.2 264.84 733.52 259.46 754.74 235.47 748.26"/>
      <text id="LBL_GM5" class="cls-24" transform="translate(241.27 744.08)"><tspan x="0" y="0">GM5</tspan></text>
    </g>
    <g id="CLASS_GM4">
      <polygon id="GM4" class="cls-21" points="230.19 727.06 222.51 743.6 196.07 731.32 203.75 714.77 216.88 720.88 230.19 727.06"/>
      <text id="LBL_GM4" class="cls-24" transform="translate(204.25 731.8)"><tspan x="0" y="0">GM4</tspan></text>
    </g>
    <g id="CLASS_GM3">
      <polygon id="GM3" class="cls-7" points="170.55 719.79 189.89 728.54 196.07 731.32 203.75 714.77 178.24 702.92 175.44 707.27 177.59 711.38 170.55 719.79"/>
      <text id="LBL_GM3" class="cls-24" transform="translate(178.27 719.73)"><tspan x="0" y="0">GM3</tspan></text>
    </g>
    <g id="CLASS_GM2">
      <polygon id="GM2" class="cls-7" points="178.5 752.96 160.98 744.78 164.68 736.62 161.94 734.66 169.38 728.2 172.85 720.88 189.89 728.54 178.5 752.96"/>
      <text id="LBL_GM2" class="cls-24" transform="translate(165.95 739.53)"><tspan x="0" y="0">GM2</tspan></text>
    </g>
    <g id="CLASS_GM1">
      <polygon id="GM1" class="cls-7" points="178.5 752.96 185.45 738.21 217.99 753.39 211.1 768.16 178.5 752.96"/>
      <text id="LBL_GM1" class="cls-24" transform="translate(189.37 755.8)"><tspan x="0" y="0">GM1</tspan></text>
    </g>
  </g>
  <g id="AREA_J_BLOCK">
    <polygon id="W_Outer-5" data-name="W_Outer" class="cls-8" points="627.62 515.19 584.38 777.17 693.56 794 735.82 531.24 670.68 521.58 627.62 515.19"/>
    <g id="LOC_STAFF_J_2">
      <polygon id="STAFF_J_2" class="cls-8" points="663.27 566.33 685.64 570.45 694 525.03 670.68 521.58 663.27 566.33"/>
      <text id="LBL_STAFF_J_2" class="cls-26" transform="translate(680.03 561.02) rotate(-80.28)"><tspan x="0" y="0">Sta</tspan><tspan class="cls-37" x="19.38" y="0">f</tspan><tspan class="cls-22" x="23.82" y="0">f</tspan></text>
    </g>
    <g id="LOC_STAFF_J_1">
      <polygon id="STAFF_J_1" class="cls-8" points="724.59 601.02 680.46 593.51 671.85 641.98 716.84 649.22 724.59 601.02"/>
      <text id="LBL_STAFF_J_1" class="cls-26" transform="translate(683.64 625.28)"><tspan x="0" y="0">Sta</tspan><tspan class="cls-37" x="19.38" y="0">f</tspan><tspan class="cls-22" x="23.82" y="0">f</tspan></text>
    </g>
    <g id="CLASS_J12">
      <polygon id="J12" class="cls-17" points="621.26 423.07 647.45 362.45 636.56 362.45 633.24 358.55 620.32 360.31 620.32 356.79 606.82 358.74 606.82 353.07 592.95 355.81 583.13 366.77 586.67 369.9 575.32 379.68 578.45 384.57 566.91 391.81 569.84 398.85 621.26 423.07"/>
      <text id="LBL_J12" class="cls-25" transform="translate(594.85 392.64)"><tspan x="0" y="0">J12</tspan></text>
    </g>
    <g id="CLASS_J11">
      <polygon id="J11" class="cls-17" points="597.75 477.5 621.26 423.07 569.84 398.85 560.45 405.31 565.54 413.72 552.79 425.27 557.13 428.49 550.08 439.94 551.84 443.58 545 451.87 597.75 477.5"/>
      <text id="LBL_J11" class="cls-25" transform="translate(570.8 442.75)"><tspan x="0" y="0">J11</tspan></text>
    </g>
    <g id="CLASS_J10">
      <polygon id="J10" class="cls-17" points="507.82 536.59 562.61 561.4 597.75 485.72 543.43 460.87 536 466.35 539.71 469.68 507.82 536.59"/>
      <text id="LBL_J10" class="cls-25" transform="translate(540.46 515.71)"><tspan x="0" y="0">J10</tspan></text>
    </g>
    <g id="CLASS_J09">
      <polygon id="J09" class="cls-17" points="499.8 561.44 539.71 567.31 535.41 594.7 529.54 594.7 528.76 600.37 534.24 600.37 526.21 651.83 487.08 646.16 499.8 561.44"/>
      <text id="LBL_J09" class="cls-25" transform="translate(501.07 611.21)"><tspan x="0" y="0">J09</tspan></text>
    </g>
    <g id="CLASS_J08">
      <polygon id="J08" class="cls-9" points="517.8 766.87 542.06 759.44 537.56 744.69 550.48 740.06 543.82 718.16 538.93 719.14 536.39 708.57 542.26 706.93 526.41 655.55 487.08 665.92 517.8 766.87"/>
      <text id="LBL_J08" class="cls-25" transform="translate(506.45 715.78)"><tspan x="0" y="0">J08</tspan></text>
    </g>
    <g id="CLASS_J07">
      <polygon id="J07" class="cls-9" points="670.68 521.58 661.08 579.56 618.32 571.55 627.62 515.19 670.68 521.58"/>
      <text id="LBL_J07" class="cls-25" transform="translate(632.16 551.95)"><tspan x="0" y="0">J07</tspan></text>
    </g>
    <g id="CLASS_J06">
      <polygon id="J06" class="cls-9" points="618.32 571.55 610.24 620.47 652.47 626.71 661.08 579.56 618.32 571.55"/>
      <text id="LBL_J06" class="cls-25" transform="translate(623.33 603.7)"><tspan x="0" y="0">J06</tspan></text>
    </g>
    <g id="CLASS_J05">
      <polygon id="J05" class="cls-9" points="599.59 685.04 641.32 692.45 633.76 740.06 591.61 733.37 599.59 685.04"/>
      <text id="LBL_J05" class="cls-25" transform="translate(604.13 717.12)"><tspan x="0" y="0">J05</tspan></text>
    </g>
    <g id="CLASS_J04">
      <polygon id="J04" class="cls-9" points="591.61 733.37 644.45 741.76 638.53 785.51 584.38 777.17 591.61 733.37"/>
      <text id="LBL_J04" class="cls-25" transform="translate(602.08 764.02)"><tspan x="0" y="0">J04</tspan></text>
    </g>
    <g id="CLASS_J03">
      <polygon id="J03" class="cls-9" points="646.35 786.72 664.21 695.39 708.28 702.47 693.56 794 646.35 786.72"/>
      <text id="LBL_J03" class="cls-25" transform="translate(664.98 749.26)"><tspan x="0" y="0">J03</tspan></text>
    </g>
    <g id="CLASS_J02">
      <polygon id="J02" class="cls-9" points="664.21 695.39 668.51 656.84 714.43 664.23 708.28 702.47 664.21 695.39"/>
      <text id="LBL_J02" class="cls-25" transform="translate(676.99 684.23)"><tspan x="0" y="0">J02</tspan></text>
    </g>
    <g id="CLASS_J01">
      <polygon id="J01" class="cls-9" points="694 525.03 683.38 582.69 726.59 588.62 735.82 531.24 694 525.03"/>
      <text id="LBL_J01" class="cls-25" transform="translate(697.27 561.4)"><tspan x="0" y="0">J01</tspan></text>
    </g>
  </g>
  <g id="AREA_PAC">
    <g id="CLASS_PAC">
      <polygon id="PAC" class="cls-4" points="647.45 362.45 651.56 369.3 664.47 363.82 676.6 372.63 690.1 364.8 690.1 371.06 703.79 369.69 703.79 372.63 717.69 371.26 700.86 492.56 673.66 481.6 666.03 494.52 651.95 494.52 636.69 487.67 631.99 493.54 597.75 477.5 647.45 362.45"/>
      <text id="LBL_PAC" class="cls-27" transform="translate(639.6 434.36)"><tspan class="cls-33" x="0" y="0">P</tspan><tspan class="cls-39" x="10.42" y="0">A</tspan><tspan x="22.92" y="0">C</tspan></text>
    </g>
    <g id="CLASS_MPR">
      <polygon id="MPR" class="cls-4" points="700.86 492.56 718.86 499.6 722.58 496.08 739.99 503.71 745.27 496.28 753.29 498.14 756.82 494.52 765.23 494.52 770.32 487.28 776.38 487.28 771.29 450.89 776.38 427.21 787.53 406.47 781.86 398.65 780.1 391.6 762.1 393.37 762.1 385.74 744.2 381.82 744.2 378.3 732.16 378.3 731.77 373.41 721.21 376.15 717.69 371.26 700.86 492.56"/>
      <text id="LBL_MPR" class="cls-27" transform="translate(724.22 443.36)"><tspan x="0" y="0">MPR</tspan></text>
    </g>
    <g id="CLASS_THT">
      <polygon id="THT" class="cls-4" points="356.97 641.7 357.37 645.36 369.4 645.36 369.4 648.88 387.3 652.79 387.3 660.42 405.3 658.66 407.06 665.7 412.74 673.53 401.58 694.27 396.5 717.94 401.58 754.33 395.52 754.33 390.43 761.57 382.02 761.57 378.5 765.19 370.47 763.33 365.19 770.77 347.78 763.14 344.06 766.66 337.72 764.18 351.56 642.81 356.97 641.7"/>
      <text id="LBL_THT" class="cls-27" transform="translate(357.14 712.11)"><tspan x="0" y="0">THT</tspan></text>
    </g>
  </g>
  <g id="AREA_R_BLOCK">
    <g id="CLASS_R26">
      <polygon id="R26" class="cls-3" points="1500.24 367.36 1543.04 372.26 1536.78 417.84 1495.35 413.44 1500.24 367.36"/>
      <text id="LBL_R26" class="cls-25" transform="translate(1505.84 397.17)"><tspan x="0" y="0">R26</tspan></text>
    </g>
    <g id="CLASS_R25">
      <polygon id="R25" class="cls-3" points="1500.24 367.36 1495.35 413.44 1452.07 408.84 1457.54 362.47 1500.24 367.36"/>
      <text id="LBL_R25" class="cls-25" transform="translate(1462.8 392.53)"><tspan x="0" y="0">R25</tspan></text>
    </g>
    <g id="CLASS_R24">
      <polygon id="R24" class="cls-3" points="1475.14 485.08 1515.65 497.28 1530.33 454.04 1488.26 441.54 1475.14 485.08"/>
      <text id="LBL_R24" class="cls-25" transform="translate(1489.38 473.98)"><tspan x="0" y="0">R24</tspan></text>
    </g>
    <g id="CLASS_R23">
      <polygon id="R23" class="cls-3" points="1488.26 441.54 1475.14 485.08 1434.46 472.82 1447.37 429.39 1488.26 441.54"/>
      <text id="LBL_R23" class="cls-25" transform="translate(1448 461.8)"><tspan x="0" y="0">R23</tspan></text>
    </g>
    <g id="CLASS_R22">
      <polygon id="R22" class="cls-3" points="1314.88 520.58 1319.61 478.5 1365 483.19 1360.44 526.27 1314.88 520.58"/>
      <text id="LBL_R22" class="cls-25" transform="translate(1326.59 506.95)"><tspan x="0" y="0">R22</tspan></text>
    </g>
    <g id="CLASS_R21">
      <polygon id="R21" class="cls-3" points="1314.88 520.58 1360.44 526.27 1355.81 570.06 1310.02 563.8 1314.88 520.58"/>
      <text id="LBL_R21" class="cls-25" transform="translate(1321.88 549.89)"><tspan x="0" y="0">R21</tspan></text>
    </g>
    <g id="CLASS_R20">
      <polygon id="R20" class="cls-3" points="1260.13 453.25 1302 460.1 1295.35 500.6 1253.37 493.56 1260.13 453.25"/>
      <text id="LBL_R20" class="cls-25" transform="translate(1264.33 481.5)"><tspan x="0" y="0">R20</tspan></text>
    </g>
    <g id="CLASS_R19">
      <polygon id="R19" class="cls-3" points="1260.13 453.25 1253.37 493.56 1209.07 486.13 1215.91 446.02 1260.13 453.25"/>
      <text id="LBL_R19" class="cls-25" transform="translate(1221.25 474.36)"><tspan x="0" y="0">R19</tspan></text>
    </g>
    <g id="CLASS_R18">
      <polygon id="R18" class="cls-3" points="1247.84 518.19 1290.65 525.45 1284.39 563.8 1241.71 557.07 1247.84 518.19"/>
      <text id="LBL_R18" class="cls-25" transform="translate(1252.83 545.56)"><tspan x="0" y="0">R18</tspan></text>
    </g>
    <g id="CLASS_R17">
      <polygon id="R17" class="cls-3" points="1247.84 518.19 1241.71 557.07 1200.07 550.5 1205.35 510.97 1247.84 518.19"/>
      <text id="LBL_R17" class="cls-25" transform="translate(1210.6 538.59)"><tspan x="0" y="0">R17</tspan></text>
    </g>
    <g id="CLASS_R16">
      <polygon id="R16" class="cls-3" points="1037.94 344.7 1075.44 365.41 1098.72 325.69 1059.54 304.59 1037.94 344.7"/>
      <text id="LBL_R16" class="cls-25" transform="translate(1054.98 339.57)"><tspan x="0" y="0">R16</tspan></text>
    </g>
    <g id="CLASS_R15">
      <polygon id="R15" class="cls-3" points="1037.94 344.7 1059.54 304.59 1022.41 284.6 1000.7 324.13 1037.94 344.7"/>
      <text id="LBL_R15" class="cls-25" transform="translate(1016.76 319.22)"><tspan x="0" y="0">R15</tspan></text>
    </g>
    <g id="CLASS_R14">
      <polygon id="R14" class="cls-3" points="764.49 876.45 694.89 865.1 700.96 825.78 717.2 827.54 716.41 834.78 724.83 834.78 725.81 828.91 770.22 836.74 769.44 843.39 764.49 876.45"/>
      <text id="LBL_R14" class="cls-25" transform="translate(719.2 855.69)"><tspan x="0" y="0">R14</tspan></text>
    </g>
    <g id="CLASS_R13">
      <polygon id="R13" class="cls-3" points="813.22 851.63 769.44 843.39 763.18 885.26 806.32 892.53 813.22 851.63"/>
      <text id="LBL_R13" class="cls-25" transform="translate(774.84 872.53)"><tspan x="0" y="0">R13</tspan></text>
    </g>
    <g id="CLASS_R12">
      <polygon id="R12" class="cls-3" points="813.22 851.63 806.32 892.53 849.07 899.74 855.72 859.63 813.22 851.63"/>
      <text id="LBL_R12" class="cls-25" transform="translate(817.67 880.25)"><tspan x="0" y="0">R12</tspan></text>
    </g>
    <g id="CLASS_R11">
      <polygon id="R11" class="cls-3" points="1285.76 950.02 1278.91 989.93 1313.31 995.59 1319.84 955.91 1285.76 950.02"/>
      <text id="LBL_R11" class="cls-25" transform="translate(1286.02 977.37)"><tspan x="0" y="0">R11</tspan></text>
    </g>
    <g id="CLASS_R10">
      <polygon id="R10" class="cls-3" points="1319.84 955.91 1313.31 995.59 1364.82 1004.06 1371.28 964.81 1319.84 955.91"/>
      <text id="LBL_R10" class="cls-25" transform="translate(1328.94 984.56)"><tspan x="0" y="0">R10</tspan></text>
    </g>
    <g id="CLASS_R09">
      <polygon id="R09" class="cls-3" points="1371.28 964.81 1364.82 1004.06 1399.44 1009.76 1405.85 970.79 1371.28 964.81"/>
      <text id="LBL_R09" class="cls-25" transform="translate(1371.98 991.85)"><tspan x="0" y="0">R09</tspan></text>
    </g>
    <g id="CLASS_R08">
      <polygon id="R08" class="cls-3" points="1405.85 970.79 1399.44 1009.76 1450.99 1018.23 1457.33 979.69 1405.85 970.79"/>
      <text id="LBL_R08" class="cls-25" transform="translate(1415.03 999.08)"><tspan x="0" y="0">R08</tspan></text>
    </g>
    <g id="CLASS_R07">
      <polygon id="R07" class="cls-3" points="1457.33 979.69 1450.99 1018.23 1502.54 1026.71 1508.61 988.56 1457.33 979.69"/>
      <text id="LBL_R07" class="cls-25" transform="translate(1466.44 1007.77)"><tspan x="0" y="0">R07</tspan></text>
    </g>
    <g id="CLASS_R06">
      <polygon id="R06" class="cls-3" points="1523.53 984.78 1512.72 1050.39 1551.85 1058.02 1562.85 991.26 1523.53 984.78"/>
      <text id="LBL_R06" class="cls-25" transform="translate(1524.43 1025.97)"><tspan x="0" y="0">R06</tspan></text>
    </g>
    <g id="CLASS_R05">
      <polygon id="R05" class="cls-3" points="1570.24 992.47 1523.53 984.78 1529.67 947.54 1576.02 955.18 1570.24 992.47"/>
      <text id="LBL_R05" class="cls-25" transform="translate(1536.42 974.58)"><tspan x="0" y="0">R05</tspan></text>
    </g>
    <g id="CLASS_R04">
      <polygon id="R04" class="cls-3" points="1576.02 955.18 1529.67 947.54 1537.96 897.23 1583.94 904.04 1576.02 955.18"/>
      <text id="LBL_R04" class="cls-25" transform="translate(1543.45 930.78)"><tspan x="0" y="0">R04</tspan></text>
    </g>
    <g id="CLASS_R03">
      <polygon id="R03" class="cls-3" points="1449.21 881.78 1442.65 921.21 1512.13 932.8 1517.22 893.08 1449.21 881.78"/>
      <text id="LBL_R03" class="cls-25" transform="translate(1466.58 911.86)"><tspan x="0" y="0">R03</tspan></text>
    </g>
    <g id="CLASS_R02">
      <polygon id="R02" class="cls-3" points="1442.65 921.21 1449.21 881.78 1397.93 873.25 1391.38 912.65 1442.65 921.21"/>
      <text id="LBL_R02" class="cls-25" transform="translate(1406.94 901.8)"><tspan x="0" y="0">R02</tspan></text>
    </g>
    <g id="CLASS_R01">
      <polygon id="R01" class="cls-3" points="1391.38 912.65 1397.93 873.25 1363.04 867.45 1357.37 906.97 1391.38 912.65"/>
      <text id="LBL_R01" class="cls-25" transform="translate(1364.3 894.62)"><tspan x="0" y="0">R01</tspan></text>
    </g>
  </g>
</svg>